REM DIRINDEX 1\2,1\3,1\4,1\5
REM DIRNAME folder01,folder02,folder03,folder04,folder05
TITLE ""
FILE "P1Q_j_1551-1564.mp3" MP3
  TRACK 01 AUDIO
    TITLE "2:cjc005_0001"
    INDEX 01 00:00:00
  TRACK 02 AUDIO
    TITLE "0:"
    INDEX 01 00:01:64
  TRACK 03 AUDIO
    TITLE "3:cjc005_0002"
    INDEX 01 00:03:21
  TRACK 04 AUDIO
    TITLE "0:"
    INDEX 01 00:05:42
  TRACK 05 AUDIO
    TITLE "4:cjc005_0003"
    INDEX 01 00:05:71
  TRACK 06 AUDIO
    TITLE "0:"
    INDEX 01 00:08:09
  TRACK 07 AUDIO
    TITLE "5:cjc005_0004"
    INDEX 01 00:08:30
  TRACK 08 AUDIO
    TITLE "0:"
    INDEX 01 00:12:16
  TRACK 09 AUDIO
    TITLE "3:cjc005_0005"
    INDEX 01 00:13:00
  TRACK 10 AUDIO
    TITLE "0:"
    INDEX 01 00:14:25
  TRACK 11 AUDIO
    TITLE "4:cjc005_0006"
    INDEX 01 00:14:54
  TRACK 12 AUDIO
    TITLE "0:"
    INDEX 01 00:15:66
  TRACK 13 AUDIO
    TITLE "5:cjc005_0007"
    INDEX 01 00:16:18
  TRACK 14 AUDIO
    TITLE "0:"
    INDEX 01 00:19:48
  TRACK 15 AUDIO
    TITLE "3:cjc005_0008"
    INDEX 01 00:20:30
  TRACK 16 AUDIO
    TITLE "0:"
    INDEX 01 00:21:70
  TRACK 17 AUDIO
    TITLE "4:cjc005_0009"
    INDEX 01 00:22:27
  TRACK 18 AUDIO
    TITLE "0:"
    INDEX 01 00:23:51
  TRACK 19 AUDIO
    TITLE "5:cjc005_0010"
    INDEX 01 00:23:73
  TRACK 20 AUDIO
    TITLE "0:"
    INDEX 01 00:27:47
  TRACK 21 AUDIO
    TITLE "3:cjc005_0011"
    INDEX 01 00:28:29
  TRACK 22 AUDIO
    TITLE "0:"
    INDEX 01 00:29:56
  TRACK 23 AUDIO
    TITLE "4:cjc005_0012"
    INDEX 01 00:30:08
  TRACK 24 AUDIO
    TITLE "0:"
    INDEX 01 00:31:14
  TRACK 25 AUDIO
    TITLE "5:cjc005_0013"
    INDEX 01 00:31:41
  TRACK 26 AUDIO
    TITLE "0:"
    INDEX 01 00:38:20
  TRACK 27 AUDIO
    TITLE "3:cjc005_0014"
    INDEX 01 00:39:05
  TRACK 28 AUDIO
    TITLE "0:"
    INDEX 01 00:41:26
  TRACK 29 AUDIO
    TITLE "4:cjc005_0015"
    INDEX 01 00:41:55
  TRACK 30 AUDIO
    TITLE "0:"
    INDEX 01 00:44:22
  TRACK 31 AUDIO
    TITLE "5:cjc005_0016"
    INDEX 01 00:44:46
  TRACK 32 AUDIO
    TITLE "0:"
    INDEX 01 00:47:52
  TRACK 33 AUDIO
    TITLE "3:cjc005_0017"
    INDEX 01 00:48:26
  TRACK 34 AUDIO
    TITLE "0:"
    INDEX 01 00:49:31
  TRACK 35 AUDIO
    TITLE "4:cjc005_0018"
    INDEX 01 00:49:69
  TRACK 36 AUDIO
    TITLE "0:"
    INDEX 01 00:51:44
  TRACK 37 AUDIO
    TITLE "5:cjc005_0019"
    INDEX 01 00:52:00
  TRACK 38 AUDIO
    TITLE "0:"
    INDEX 01 00:55:71
  TRACK 39 AUDIO
    TITLE "3:cjc005_0020"
    INDEX 01 00:56:61
  TRACK 40 AUDIO
    TITLE "0:"
    INDEX 01 00:58:11
  TRACK 41 AUDIO
    TITLE "4:cjc005_0021"
    INDEX 01 00:58:42
  TRACK 42 AUDIO
    TITLE "0:"
    INDEX 01 00:59:32
  TRACK 43 AUDIO
    TITLE "5:cjc005_0022"
    INDEX 01 00:59:59
  TRACK 44 AUDIO
    TITLE "0:"
    INDEX 01 01:03:63
  TRACK 45 AUDIO
    TITLE "3:cjc005_0023"
    INDEX 01 01:04:52
  TRACK 46 AUDIO
    TITLE "0:"
    INDEX 01 01:06:02
  TRACK 47 AUDIO
    TITLE "4:cjc005_0024"
    INDEX 01 01:06:30
  TRACK 48 AUDIO
    TITLE "0:"
    INDEX 01 01:07:51
  TRACK 49 AUDIO
    TITLE "5:cjc005_0025"
    INDEX 01 01:08:01
  TRACK 50 AUDIO
    TITLE "0:"
    INDEX 01 01:12:23
  TRACK 51 AUDIO
    TITLE "3:cjc005_0026"
    INDEX 01 01:13:02
  TRACK 52 AUDIO
    TITLE "0:"
    INDEX 01 01:14:19
  TRACK 53 AUDIO
    TITLE "4:cjc005_0027"
    INDEX 01 01:14:43
  TRACK 54 AUDIO
    TITLE "0:"
    INDEX 01 01:15:54
  TRACK 55 AUDIO
    TITLE "5:cjc005_0028"
    INDEX 01 01:16:01
  TRACK 56 AUDIO
    TITLE "0:"
    INDEX 01 01:19:74
  TRACK 57 AUDIO
    TITLE "3:cjc005_0029"
    INDEX 01 01:20:55
  TRACK 58 AUDIO
    TITLE "0:"
    INDEX 01 01:22:09
  TRACK 59 AUDIO
    TITLE "4:cjc005_0030"
    INDEX 01 01:22:35
  TRACK 60 AUDIO
    TITLE "0:"
    INDEX 01 01:23:73
  TRACK 61 AUDIO
    TITLE "5:cjc005_0031"
    INDEX 01 01:24:26
  TRACK 62 AUDIO
    TITLE "0:"
    INDEX 01 01:28:24
  TRACK 63 AUDIO
    TITLE "3:cjc005_0032"
    INDEX 01 01:28:74
  TRACK 64 AUDIO
    TITLE "0:"
    INDEX 01 01:30:20
  TRACK 65 AUDIO
    TITLE "4:cjc005_0033"
    INDEX 01 01:30:50
  TRACK 66 AUDIO
    TITLE "0:"
    INDEX 01 01:32:00
  TRACK 67 AUDIO
    TITLE "5:cjc005_0034"
    INDEX 01 01:32:25
  TRACK 68 AUDIO
    TITLE "0:"
    INDEX 01 01:35:35
  TRACK 69 AUDIO
    TITLE "3:cjc005_0035"
    INDEX 01 01:36:17
  TRACK 70 AUDIO
    TITLE "0:"
    INDEX 01 01:37:58
  TRACK 71 AUDIO
    TITLE "4:cjc005_0036"
    INDEX 01 01:38:16
  TRACK 72 AUDIO
    TITLE "0:"
    INDEX 01 01:40:03
  TRACK 73 AUDIO
    TITLE "5:cjc005_0037"
    INDEX 01 01:40:29
  TRACK 74 AUDIO
    TITLE "0:"
    INDEX 01 01:44:62
  TRACK 75 AUDIO
    TITLE "3:cjc005_0038"
    INDEX 01 01:45:42
  TRACK 76 AUDIO
    TITLE "0:"
    INDEX 01 01:47:03
  TRACK 77 AUDIO
    TITLE "4:cjc005_0039"
    INDEX 01 01:47:27
  TRACK 78 AUDIO
    TITLE "0:"
    INDEX 01 01:48:61
  TRACK 79 AUDIO
    TITLE "5:cjc005_0040"
    INDEX 01 01:49:12
  TRACK 80 AUDIO
    TITLE "0:"
    INDEX 01 01:51:60
  TRACK 81 AUDIO
    TITLE "3:cjc005_0041"
    INDEX 01 01:52:32
  TRACK 82 AUDIO
    TITLE "0:"
    INDEX 01 01:53:55
  TRACK 83 AUDIO
    TITLE "4:cjc005_0042"
    INDEX 01 01:54:11
  TRACK 84 AUDIO
    TITLE "0:"
    INDEX 01 01:55:56
  TRACK 85 AUDIO
    TITLE "5:cjc005_0043"
    INDEX 01 01:56:08
  TRACK 86 AUDIO
    TITLE "0:"
    INDEX 01 02:01:11
